# xmcd
#
# Track frame offsets:
#	150
#	10659
#	22503
#	47819
#	63362
#	78697
#	93239
#	106596
#	123767
#	141567
#	157041
#	168946
#	187498
#	202229
#	216653
#	228902
#
# Disc length: 3206 seconds
#
# Revision: 1
# Processed by: cddbd v1.5PL3 Copyright (c) Steve Scherf et al.
# Submitted via: EasyCDDAExtractor 5.0.7
#
DISCID=dc0c8410
DTITLE=Richard Anthony - Les Plus Grandes Chansons
DYEAR=2003
DGENRE=Chanson
TTITLE0=La terre promise
TTITLE1=Ce monde
TTITLE2=Aranjuez mon amour
TTITLE3=J'entends siffler le train
TTITLE4=J'irai pleurer sous la pluie
TTITLE5=Après toi
TTITLE6=Sunny
TTITLE7=Maggy May
TTITLE8=Sans toi
TTITLE9=Écoute dans le vent
TTITLE10=Tchin Tchin
TTITLE11=Victoire je t'aime
TTITLE12=Fille Sauvage
TTITLE13=Tu es sortie de ma vie
TTITLE14=Amoureux de ma femme
TTITLE15=Donne-moi ma chance
EXTD=
EXTT0=
EXTT1=
EXTT2=
EXTT3=
EXTT4=
EXTT5=
EXTT6=
EXTT7=
EXTT8=
EXTT9=
EXTT10=
EXTT11=
EXTT12=
EXTT13=
EXTT14=
EXTT15=
PLAYORDER=
